<mxfile host="app.diagrams.net" agent="Mozilla/5.0 (Windows NT 10.0; Win64; x64) AppleWebKit/537.36 (KHTML, like Gecko) Chrome/141.0.0.0 Safari/537.36" version="28.2.5">
  <diagram name="Page-1" id="2ygqq5YEsVggvZt9C7O7">
    <mxGraphModel dx="826" dy="1560" grid="1" gridSize="10" guides="1" tooltips="1" connect="1" arrows="1" fold="1" page="1" pageScale="1" pageWidth="850" pageHeight="1100" math="0" shadow="0" adaptiveColors="none">
      <root>
        <mxCell id="0" />
        <mxCell id="1" parent="0" />
        <mxCell id="rQRGydB8hujRipLv5s7F-23" value="FastAPI" style="rounded=0;whiteSpace=wrap;html=1;" vertex="1" parent="1">
          <mxGeometry x="290" y="80" width="80" height="80" as="geometry" />
        </mxCell>
        <mxCell id="rQRGydB8hujRipLv5s7F-24" value="DB (PostgreSQL)" style="rounded=0;whiteSpace=wrap;html=1;" vertex="1" parent="1">
          <mxGeometry x="490" y="-40" width="80" height="80" as="geometry" />
        </mxCell>
        <mxCell id="rQRGydB8hujRipLv5s7F-26" value="AI Data Pipeline" style="rounded=0;whiteSpace=wrap;html=1;" vertex="1" parent="1">
          <mxGeometry x="490" y="200" width="80" height="80" as="geometry" />
        </mxCell>
        <mxCell id="rQRGydB8hujRipLv5s7F-27" value="" style="endArrow=classic;html=1;rounded=0;entryX=0;entryY=0.25;entryDx=0;entryDy=0;exitX=0.25;exitY=0;exitDx=0;exitDy=0;" edge="1" parent="1" source="rQRGydB8hujRipLv5s7F-23" target="rQRGydB8hujRipLv5s7F-24">
          <mxGeometry width="50" height="50" relative="1" as="geometry">
            <mxPoint x="330" y="80" as="sourcePoint" />
            <mxPoint x="380" y="30" as="targetPoint" />
          </mxGeometry>
        </mxCell>
        <mxCell id="rQRGydB8hujRipLv5s7F-28" value="" style="endArrow=classic;html=1;rounded=0;entryX=0.75;entryY=0;entryDx=0;entryDy=0;exitX=0.002;exitY=0.557;exitDx=0;exitDy=0;exitPerimeter=0;" edge="1" parent="1" source="rQRGydB8hujRipLv5s7F-24" target="rQRGydB8hujRipLv5s7F-23">
          <mxGeometry width="50" height="50" relative="1" as="geometry">
            <mxPoint x="480" y="10" as="sourcePoint" />
            <mxPoint x="520" y="110" as="targetPoint" />
          </mxGeometry>
        </mxCell>
        <mxCell id="rQRGydB8hujRipLv5s7F-34" value="" style="endArrow=classic;html=1;rounded=0;entryX=0;entryY=0.5;entryDx=0;entryDy=0;exitX=0.75;exitY=1;exitDx=0;exitDy=0;" edge="1" parent="1" source="rQRGydB8hujRipLv5s7F-23" target="rQRGydB8hujRipLv5s7F-26">
          <mxGeometry width="50" height="50" relative="1" as="geometry">
            <mxPoint x="410" y="180" as="sourcePoint" />
            <mxPoint x="450" y="180" as="targetPoint" />
          </mxGeometry>
        </mxCell>
        <mxCell id="rQRGydB8hujRipLv5s7F-35" value="&lt;font style=&quot;font-size: 7px;&quot;&gt;-2. 주기적 polling (프론트 작업상태 update)&lt;/font&gt;" style="text;html=1;align=center;verticalAlign=middle;resizable=0;points=[];autosize=1;strokeColor=none;fillColor=none;rotation=-30;" vertex="1" parent="1">
          <mxGeometry x="355" y="30" width="150" height="30" as="geometry" />
        </mxCell>
        <mxCell id="rQRGydB8hujRipLv5s7F-36" value="&lt;span style=&quot;font-size: 7px;&quot;&gt;1. 데이터 업로드, job 생성&lt;/span&gt;" style="text;html=1;align=center;verticalAlign=middle;resizable=0;points=[];autosize=1;strokeColor=none;fillColor=none;rotation=-30;" vertex="1" parent="1">
          <mxGeometry x="345.0017782649107" y="0.00038105676658517496" width="100" height="30" as="geometry" />
        </mxCell>
        <mxCell id="rQRGydB8hujRipLv5s7F-40" value="&lt;span style=&quot;font-size: 7px;&quot;&gt;2. 파이프라인 함수 호출&lt;/span&gt;" style="text;html=1;align=center;verticalAlign=middle;resizable=0;points=[];autosize=1;strokeColor=none;fillColor=none;rotation=30;" vertex="1" parent="1">
          <mxGeometry x="375" y="170" width="90" height="30" as="geometry" />
        </mxCell>
        <mxCell id="rQRGydB8hujRipLv5s7F-41" value="&lt;span style=&quot;font-size: 7px;&quot;&gt;3. 데이터 처리 결과 저장&lt;/span&gt;" style="text;html=1;align=center;verticalAlign=middle;resizable=0;points=[];autosize=1;strokeColor=none;fillColor=none;" vertex="1" parent="1">
          <mxGeometry x="540" y="105" width="90" height="30" as="geometry" />
        </mxCell>
        <mxCell id="rQRGydB8hujRipLv5s7F-43" value="Frontend" style="rounded=0;whiteSpace=wrap;html=1;" vertex="1" parent="1">
          <mxGeometry x="90" y="80" width="80" height="80" as="geometry" />
        </mxCell>
        <mxCell id="rQRGydB8hujRipLv5s7F-46" value="&lt;font style=&quot;font-size: 7px;&quot;&gt;0. 데이터 업로드 및 처리 요청&lt;/font&gt;" style="text;html=1;align=center;verticalAlign=middle;resizable=0;points=[];autosize=1;strokeColor=none;fillColor=none;" vertex="1" parent="1">
          <mxGeometry x="175" y="80" width="110" height="30" as="geometry" />
        </mxCell>
        <mxCell id="rQRGydB8hujRipLv5s7F-47" value="" style="endArrow=classic;html=1;rounded=0;entryX=0;entryY=0.375;entryDx=0;entryDy=0;entryPerimeter=0;" edge="1" parent="1" target="rQRGydB8hujRipLv5s7F-23">
          <mxGeometry width="50" height="50" relative="1" as="geometry">
            <mxPoint x="170" y="110" as="sourcePoint" />
            <mxPoint x="270" y="110" as="targetPoint" />
          </mxGeometry>
        </mxCell>
        <mxCell id="rQRGydB8hujRipLv5s7F-48" value="" style="endArrow=classic;html=1;rounded=0;exitX=0;exitY=0.625;exitDx=0;exitDy=0;exitPerimeter=0;entryX=1;entryY=0.625;entryDx=0;entryDy=0;entryPerimeter=0;" edge="1" parent="1" source="rQRGydB8hujRipLv5s7F-23" target="rQRGydB8hujRipLv5s7F-43">
          <mxGeometry width="50" height="50" relative="1" as="geometry">
            <mxPoint x="200" y="150" as="sourcePoint" />
            <mxPoint x="180" y="130" as="targetPoint" />
          </mxGeometry>
        </mxCell>
        <mxCell id="rQRGydB8hujRipLv5s7F-49" value="&lt;font style=&quot;font-size: 7px;&quot;&gt;-1. 주기적 데이터 polling 요청&lt;/font&gt;" style="text;html=1;align=center;verticalAlign=middle;resizable=0;points=[];autosize=1;strokeColor=none;fillColor=none;" vertex="1" parent="1">
          <mxGeometry x="175" y="130" width="110" height="30" as="geometry" />
        </mxCell>
        <mxCell id="rQRGydB8hujRipLv5s7F-51" value="" style="endArrow=classic;html=1;rounded=0;entryX=0.5;entryY=1;entryDx=0;entryDy=0;exitX=0.5;exitY=0;exitDx=0;exitDy=0;" edge="1" parent="1" source="rQRGydB8hujRipLv5s7F-26" target="rQRGydB8hujRipLv5s7F-24">
          <mxGeometry width="50" height="50" relative="1" as="geometry">
            <mxPoint x="330" y="140" as="sourcePoint" />
            <mxPoint x="380" y="90" as="targetPoint" />
          </mxGeometry>
        </mxCell>
      </root>
    </mxGraphModel>
  </diagram>
</mxfile>
